<mxfile host="app.diagrams.net" agent="Mozilla/5.0 (Windows NT 10.0; Win64; x64; rv:128.0) Gecko/20100101 Firefox/128.0" version="24.7.4">
  <diagram id="C5RBs43oDa-KdzZeNtuy" name="Page-1">
    <mxGraphModel dx="2333" dy="1393" grid="1" gridSize="10" guides="1" tooltips="1" connect="1" arrows="1" fold="1" page="1" pageScale="1" pageWidth="827" pageHeight="1169" math="0" shadow="0">
      <root>
        <mxCell id="WIyWlLk6GJQsqaUBKTNV-0" />
        <mxCell id="WIyWlLk6GJQsqaUBKTNV-1" parent="WIyWlLk6GJQsqaUBKTNV-0" />
        <mxCell id="H0OkekcdUdAuK9iujWwk-10" value="" style="edgeStyle=none;curved=1;rounded=0;orthogonalLoop=1;jettySize=auto;html=1;fontSize=12;startSize=8;endSize=8;" edge="1" parent="WIyWlLk6GJQsqaUBKTNV-1" source="H0OkekcdUdAuK9iujWwk-1" target="H0OkekcdUdAuK9iujWwk-9">
          <mxGeometry relative="1" as="geometry" />
        </mxCell>
        <mxCell id="H0OkekcdUdAuK9iujWwk-1" value="pay_method" style="strokeWidth=2;html=1;shape=mxgraph.flowchart.terminator;whiteSpace=wrap;" vertex="1" parent="WIyWlLk6GJQsqaUBKTNV-1">
          <mxGeometry x="85" y="10" width="100" height="60" as="geometry" />
        </mxCell>
        <mxCell id="H0OkekcdUdAuK9iujWwk-2" value="end" style="strokeWidth=2;html=1;shape=mxgraph.flowchart.terminator;whiteSpace=wrap;" vertex="1" parent="WIyWlLk6GJQsqaUBKTNV-1">
          <mxGeometry x="85" y="1694" width="100" height="60" as="geometry" />
        </mxCell>
        <mxCell id="H0OkekcdUdAuK9iujWwk-14" value="" style="edgeStyle=none;curved=1;rounded=0;orthogonalLoop=1;jettySize=auto;html=1;fontSize=12;startSize=8;endSize=8;" edge="1" parent="WIyWlLk6GJQsqaUBKTNV-1" source="H0OkekcdUdAuK9iujWwk-9" target="H0OkekcdUdAuK9iujWwk-13">
          <mxGeometry relative="1" as="geometry" />
        </mxCell>
        <mxCell id="H0OkekcdUdAuK9iujWwk-9" value="set global selectedCard" style="whiteSpace=wrap;html=1;strokeWidth=2;" vertex="1" parent="WIyWlLk6GJQsqaUBKTNV-1">
          <mxGeometry x="75" y="100" width="120" height="60" as="geometry" />
        </mxCell>
        <mxCell id="H0OkekcdUdAuK9iujWwk-16" value="yes" style="edgeStyle=none;curved=1;rounded=0;orthogonalLoop=1;jettySize=auto;html=1;fontSize=12;startSize=8;endSize=8;" edge="1" parent="WIyWlLk6GJQsqaUBKTNV-1" source="H0OkekcdUdAuK9iujWwk-13" target="H0OkekcdUdAuK9iujWwk-15">
          <mxGeometry relative="1" as="geometry" />
        </mxCell>
        <mxCell id="H0OkekcdUdAuK9iujWwk-18" value="no" style="edgeStyle=none;curved=1;rounded=0;orthogonalLoop=1;jettySize=auto;html=1;fontSize=12;startSize=8;endSize=8;" edge="1" parent="WIyWlLk6GJQsqaUBKTNV-1" source="H0OkekcdUdAuK9iujWwk-13" target="H0OkekcdUdAuK9iujWwk-17">
          <mxGeometry relative="1" as="geometry" />
        </mxCell>
        <mxCell id="H0OkekcdUdAuK9iujWwk-13" value="&lt;div&gt;is selected radi&lt;/div&gt;&lt;div&gt;&amp;nbsp;button 1&lt;/div&gt;" style="rhombus;whiteSpace=wrap;html=1;strokeWidth=2;" vertex="1" parent="WIyWlLk6GJQsqaUBKTNV-1">
          <mxGeometry x="70" y="190" width="130" height="80" as="geometry" />
        </mxCell>
        <mxCell id="H0OkekcdUdAuK9iujWwk-15" value="selectedCard = &#39;debit&#39;" style="whiteSpace=wrap;html=1;strokeWidth=2;" vertex="1" parent="WIyWlLk6GJQsqaUBKTNV-1">
          <mxGeometry x="270" y="200" width="120" height="60" as="geometry" />
        </mxCell>
        <mxCell id="H0OkekcdUdAuK9iujWwk-20" value="" style="edgeStyle=none;curved=1;rounded=0;orthogonalLoop=1;jettySize=auto;html=1;fontSize=12;startSize=8;endSize=8;" edge="1" parent="WIyWlLk6GJQsqaUBKTNV-1" source="H0OkekcdUdAuK9iujWwk-17" target="H0OkekcdUdAuK9iujWwk-19">
          <mxGeometry relative="1" as="geometry" />
        </mxCell>
        <mxCell id="H0OkekcdUdAuK9iujWwk-17" value="selectedCard = &#39;credit&#39;" style="whiteSpace=wrap;html=1;strokeWidth=2;" vertex="1" parent="WIyWlLk6GJQsqaUBKTNV-1">
          <mxGeometry x="75" y="310" width="120" height="60" as="geometry" />
        </mxCell>
        <mxCell id="H0OkekcdUdAuK9iujWwk-23" value="" style="edgeStyle=none;curved=1;rounded=0;orthogonalLoop=1;jettySize=auto;html=1;fontSize=12;startSize=8;endSize=8;" edge="1" parent="WIyWlLk6GJQsqaUBKTNV-1" source="H0OkekcdUdAuK9iujWwk-19" target="H0OkekcdUdAuK9iujWwk-22">
          <mxGeometry relative="1" as="geometry" />
        </mxCell>
        <mxCell id="H0OkekcdUdAuK9iujWwk-19" value="print which card the user selected" style="shape=parallelogram;perimeter=parallelogramPerimeter;whiteSpace=wrap;html=1;fixedSize=1;strokeWidth=2;" vertex="1" parent="WIyWlLk6GJQsqaUBKTNV-1">
          <mxGeometry x="75" y="400" width="120" height="60" as="geometry" />
        </mxCell>
        <mxCell id="H0OkekcdUdAuK9iujWwk-26" value="" style="edgeStyle=none;curved=1;rounded=0;orthogonalLoop=1;jettySize=auto;html=1;fontSize=12;startSize=8;endSize=8;" edge="1" parent="WIyWlLk6GJQsqaUBKTNV-1" source="H0OkekcdUdAuK9iujWwk-22" target="H0OkekcdUdAuK9iujWwk-25">
          <mxGeometry relative="1" as="geometry" />
        </mxCell>
        <mxCell id="H0OkekcdUdAuK9iujWwk-22" value="get_card_info card_number" style="shape=process;whiteSpace=wrap;html=1;backgroundOutline=1;strokeWidth=2;" vertex="1" parent="WIyWlLk6GJQsqaUBKTNV-1">
          <mxGeometry x="75" y="490" width="120" height="60" as="geometry" />
        </mxCell>
        <mxCell id="H0OkekcdUdAuK9iujWwk-28" value="no" style="edgeStyle=none;curved=1;rounded=0;orthogonalLoop=1;jettySize=auto;html=1;fontSize=12;startSize=8;endSize=8;" edge="1" parent="WIyWlLk6GJQsqaUBKTNV-1" source="H0OkekcdUdAuK9iujWwk-25" target="H0OkekcdUdAuK9iujWwk-27">
          <mxGeometry relative="1" as="geometry" />
        </mxCell>
        <mxCell id="H0OkekcdUdAuK9iujWwk-59" value="yes" style="edgeStyle=orthogonalEdgeStyle;rounded=0;orthogonalLoop=1;jettySize=auto;html=1;fontSize=12;startSize=8;endSize=8;" edge="1" parent="WIyWlLk6GJQsqaUBKTNV-1">
          <mxGeometry relative="1" as="geometry">
            <mxPoint x="140" y="1460" as="targetPoint" />
            <mxPoint x="170" y="610" as="sourcePoint" />
            <Array as="points">
              <mxPoint x="170" y="611" />
              <mxPoint x="340" y="611" />
              <mxPoint x="340" y="1464" />
            </Array>
          </mxGeometry>
        </mxCell>
        <mxCell id="H0OkekcdUdAuK9iujWwk-25" value="is get_card_info false?" style="rhombus;whiteSpace=wrap;html=1;strokeWidth=2;" vertex="1" parent="WIyWlLk6GJQsqaUBKTNV-1">
          <mxGeometry x="70" y="570" width="130" height="80" as="geometry" />
        </mxCell>
        <mxCell id="H0OkekcdUdAuK9iujWwk-30" value="" style="edgeStyle=none;curved=1;rounded=0;orthogonalLoop=1;jettySize=auto;html=1;fontSize=12;startSize=8;endSize=8;" edge="1" parent="WIyWlLk6GJQsqaUBKTNV-1" source="H0OkekcdUdAuK9iujWwk-27" target="H0OkekcdUdAuK9iujWwk-29">
          <mxGeometry relative="1" as="geometry" />
        </mxCell>
        <mxCell id="H0OkekcdUdAuK9iujWwk-27" value="get_card_info card_number" style="shape=process;whiteSpace=wrap;html=1;backgroundOutline=1;strokeWidth=2;" vertex="1" parent="WIyWlLk6GJQsqaUBKTNV-1">
          <mxGeometry x="75" y="690" width="120" height="60" as="geometry" />
        </mxCell>
        <mxCell id="H0OkekcdUdAuK9iujWwk-36" value="" style="edgeStyle=none;curved=1;rounded=0;orthogonalLoop=1;jettySize=auto;html=1;fontSize=12;startSize=8;endSize=8;" edge="1" parent="WIyWlLk6GJQsqaUBKTNV-1" source="H0OkekcdUdAuK9iujWwk-29" target="H0OkekcdUdAuK9iujWwk-32">
          <mxGeometry relative="1" as="geometry" />
        </mxCell>
        <mxCell id="H0OkekcdUdAuK9iujWwk-29" value="insert card_number into cardEntry" style="shape=parallelogram;perimeter=parallelogramPerimeter;whiteSpace=wrap;html=1;fixedSize=1;strokeWidth=2;" vertex="1" parent="WIyWlLk6GJQsqaUBKTNV-1">
          <mxGeometry x="75" y="780" width="120" height="60" as="geometry" />
        </mxCell>
        <mxCell id="H0OkekcdUdAuK9iujWwk-31" value="" style="edgeStyle=none;curved=1;rounded=0;orthogonalLoop=1;jettySize=auto;html=1;fontSize=12;startSize=8;endSize=8;" edge="1" parent="WIyWlLk6GJQsqaUBKTNV-1" source="H0OkekcdUdAuK9iujWwk-32" target="H0OkekcdUdAuK9iujWwk-33">
          <mxGeometry relative="1" as="geometry" />
        </mxCell>
        <mxCell id="H0OkekcdUdAuK9iujWwk-32" value="get_card_info expiry_date" style="shape=process;whiteSpace=wrap;html=1;backgroundOutline=1;strokeWidth=2;" vertex="1" parent="WIyWlLk6GJQsqaUBKTNV-1">
          <mxGeometry x="75" y="880" width="120" height="60" as="geometry" />
        </mxCell>
        <mxCell id="H0OkekcdUdAuK9iujWwk-33" value="&lt;div&gt;insert expiry_date&lt;/div&gt;&lt;div&gt;&amp;nbsp;into dateEntry&lt;/div&gt;" style="shape=parallelogram;perimeter=parallelogramPerimeter;whiteSpace=wrap;html=1;fixedSize=1;strokeWidth=2;" vertex="1" parent="WIyWlLk6GJQsqaUBKTNV-1">
          <mxGeometry x="75" y="970" width="120" height="60" as="geometry" />
        </mxCell>
        <mxCell id="H0OkekcdUdAuK9iujWwk-38" value="" style="edgeStyle=none;curved=1;rounded=0;orthogonalLoop=1;jettySize=auto;html=1;fontSize=12;startSize=8;endSize=8;exitX=0.5;exitY=1;exitDx=0;exitDy=0;" edge="1" parent="WIyWlLk6GJQsqaUBKTNV-1" target="H0OkekcdUdAuK9iujWwk-40" source="H0OkekcdUdAuK9iujWwk-33">
          <mxGeometry relative="1" as="geometry">
            <mxPoint x="137.5" y="1040" as="sourcePoint" />
          </mxGeometry>
        </mxCell>
        <mxCell id="H0OkekcdUdAuK9iujWwk-39" value="" style="edgeStyle=none;curved=1;rounded=0;orthogonalLoop=1;jettySize=auto;html=1;fontSize=12;startSize=8;endSize=8;" edge="1" parent="WIyWlLk6GJQsqaUBKTNV-1" source="H0OkekcdUdAuK9iujWwk-40" target="H0OkekcdUdAuK9iujWwk-42">
          <mxGeometry relative="1" as="geometry" />
        </mxCell>
        <mxCell id="H0OkekcdUdAuK9iujWwk-40" value="get_card_info cvv" style="shape=process;whiteSpace=wrap;html=1;backgroundOutline=1;strokeWidth=2;" vertex="1" parent="WIyWlLk6GJQsqaUBKTNV-1">
          <mxGeometry x="75" y="1080" width="120" height="60" as="geometry" />
        </mxCell>
        <mxCell id="H0OkekcdUdAuK9iujWwk-48" value="" style="edgeStyle=none;curved=1;rounded=0;orthogonalLoop=1;jettySize=auto;html=1;fontSize=12;startSize=8;endSize=8;" edge="1" parent="WIyWlLk6GJQsqaUBKTNV-1" source="H0OkekcdUdAuK9iujWwk-42" target="H0OkekcdUdAuK9iujWwk-44">
          <mxGeometry relative="1" as="geometry" />
        </mxCell>
        <mxCell id="H0OkekcdUdAuK9iujWwk-42" value="&lt;div&gt;insert cvv&lt;/div&gt;&lt;div&gt;&amp;nbsp;into cvvEntry&lt;/div&gt;" style="shape=parallelogram;perimeter=parallelogramPerimeter;whiteSpace=wrap;html=1;fixedSize=1;strokeWidth=2;" vertex="1" parent="WIyWlLk6GJQsqaUBKTNV-1">
          <mxGeometry x="75" y="1169" width="120" height="60" as="geometry" />
        </mxCell>
        <mxCell id="H0OkekcdUdAuK9iujWwk-43" value="" style="edgeStyle=none;curved=1;rounded=0;orthogonalLoop=1;jettySize=auto;html=1;fontSize=12;startSize=8;endSize=8;" edge="1" parent="WIyWlLk6GJQsqaUBKTNV-1" source="H0OkekcdUdAuK9iujWwk-44" target="H0OkekcdUdAuK9iujWwk-45">
          <mxGeometry relative="1" as="geometry" />
        </mxCell>
        <mxCell id="H0OkekcdUdAuK9iujWwk-44" value="get_card_info address" style="shape=process;whiteSpace=wrap;html=1;backgroundOutline=1;strokeWidth=2;" vertex="1" parent="WIyWlLk6GJQsqaUBKTNV-1">
          <mxGeometry x="75" y="1270" width="120" height="60" as="geometry" />
        </mxCell>
        <mxCell id="H0OkekcdUdAuK9iujWwk-52" value="" style="edgeStyle=none;curved=1;rounded=0;orthogonalLoop=1;jettySize=auto;html=1;fontSize=12;startSize=8;endSize=8;" edge="1" parent="WIyWlLk6GJQsqaUBKTNV-1" source="H0OkekcdUdAuK9iujWwk-45" target="H0OkekcdUdAuK9iujWwk-51">
          <mxGeometry relative="1" as="geometry" />
        </mxCell>
        <mxCell id="H0OkekcdUdAuK9iujWwk-45" value="&lt;div&gt;insert address&lt;/div&gt;&lt;div&gt;&amp;nbsp;into addressEntry&lt;/div&gt;" style="shape=parallelogram;perimeter=parallelogramPerimeter;whiteSpace=wrap;html=1;fixedSize=1;strokeWidth=2;" vertex="1" parent="WIyWlLk6GJQsqaUBKTNV-1">
          <mxGeometry x="75" y="1370" width="120" height="60" as="geometry" />
        </mxCell>
        <mxCell id="H0OkekcdUdAuK9iujWwk-56" value="" style="edgeStyle=none;curved=1;rounded=0;orthogonalLoop=1;jettySize=auto;html=1;fontSize=12;startSize=8;endSize=8;" edge="1" parent="WIyWlLk6GJQsqaUBKTNV-1" source="H0OkekcdUdAuK9iujWwk-51" target="H0OkekcdUdAuK9iujWwk-55">
          <mxGeometry relative="1" as="geometry" />
        </mxCell>
        <mxCell id="H0OkekcdUdAuK9iujWwk-51" value="&lt;div&gt;forget&lt;/div&gt;&lt;div&gt;choiceFrame&lt;/div&gt;" style="shape=parallelogram;perimeter=parallelogramPerimeter;whiteSpace=wrap;html=1;fixedSize=1;strokeWidth=2;" vertex="1" parent="WIyWlLk6GJQsqaUBKTNV-1">
          <mxGeometry x="75" y="1480" width="120" height="60" as="geometry" />
        </mxCell>
        <mxCell id="H0OkekcdUdAuK9iujWwk-57" value="" style="edgeStyle=none;curved=1;rounded=0;orthogonalLoop=1;jettySize=auto;html=1;fontSize=12;startSize=8;endSize=8;" edge="1" parent="WIyWlLk6GJQsqaUBKTNV-1" source="H0OkekcdUdAuK9iujWwk-55" target="H0OkekcdUdAuK9iujWwk-2">
          <mxGeometry relative="1" as="geometry" />
        </mxCell>
        <mxCell id="H0OkekcdUdAuK9iujWwk-55" value="&lt;div&gt;place&lt;/div&gt;&lt;div&gt;paymentFrame&lt;/div&gt;" style="shape=parallelogram;perimeter=parallelogramPerimeter;whiteSpace=wrap;html=1;fixedSize=1;strokeWidth=2;" vertex="1" parent="WIyWlLk6GJQsqaUBKTNV-1">
          <mxGeometry x="75" y="1580" width="120" height="60" as="geometry" />
        </mxCell>
      </root>
    </mxGraphModel>
  </diagram>
</mxfile>
